<?xml version="1.0" standalone="no"?><!DOCTYPE svg PUBLIC "-//W3C//DTD SVG 1.1//EN" "http://www.w3.org/Graphics/SVG/1.1/DTD/svg11.dtd"><svg t="1585236435827" class="icon" viewBox="0 0 2779 1024" version="1.1" xmlns="http://www.w3.org/2000/svg" p-id="4072" width="70.560546875" height="26" xmlns:xlink="http://www.w3.org/1999/xlink"><defs><style type="text/css"></style></defs><path d="M2728.228571 512L2523.428571 307.2V109.714286c0-40.228571-32.914286-73.142857-73.142857-73.142857H109.714286c-40.228571 0-73.142857 32.914286-73.142857 73.142857v804.571428c0 40.228571 32.914286 73.142857 73.142857 73.142857h2340.571428c40.228571 0 73.142857-32.914286 73.142857-73.142857v-197.485714l204.8-204.8zM2560 292.571429l193.828571 193.828571c14.628571 14.628571 14.628571 36.571429 0 51.2L2560 731.428571v182.857143c0 62.171429-47.542857 109.714286-109.714286 109.714286H109.714286c-62.171429 0-109.714286-47.542857-109.714286-109.714286V109.714286c0-62.171429 47.542857-109.714286 109.714286-109.714286h2340.571428c62.171429 0 109.714286 47.542857 109.714286 109.714286v182.857143z" p-id="4073" fill="#666666"></path><path d="M585.142857 332.8h219.428572v358.4h-36.571429v-25.6h-193.828571v-32.914286H768V512h-175.542857v-29.257143H768V365.714286h-182.857143v-32.914286z m-14.628571 146.285714v32.914286c-18.285714 7.314286-32.914286 14.628571-51.2 21.942857V658.285714c0 25.6-10.971429 36.571429-36.571429 36.571429h-36.571428l-7.314286-29.257143h32.914286c10.971429 0 14.628571-7.314286 14.628571-18.285714v-109.714286c-18.285714 7.314286-36.571429 10.971429-58.514286 18.285714l-7.314285-29.257143c21.942857-3.657143 43.885714-10.971429 65.828571-18.285714v-102.4h-58.514286v-29.257143h58.514286V299.885714h32.914286v80.457143h47.542857v29.257143h-47.542857v91.428571c14.628571-7.314286 32.914286-14.628571 51.2-21.942857z m435.2-25.6v226.742857h-29.257143v-25.6h-47.542857v32.914286h-29.257143v-179.2c-7.314286 14.628571-18.285714 32.914286-29.257143 47.542857l-14.628571-25.6c32.914286-51.2 54.857143-109.714286 65.828571-175.542857h-54.857143v-29.257143h149.942857v29.257143H950.857143c-7.314286 36.571429-14.628571 69.485714-25.6 98.742857h80.457143z m-76.8 171.885715h47.542857v-142.628572h-47.542857v142.628572z m138.971428-245.028572l32.914286 3.657143-18.285714 109.714286H1170.285714l21.942857-142.628572h-153.6v-32.914285h190.171429l-25.6 171.885714h47.542857c0 106.057143-7.314286 168.228571-18.285714 182.857143-10.971429 14.628571-36.571429 25.6-76.8 25.6h-40.228572l-7.314285-29.257143c18.285714 0 32.914286 3.657143 40.228571 3.657143 32.914286 0 54.857143-7.314286 62.171429-21.942857 7.314286-14.628571 10.971429-58.514286 10.971428-128h-175.542857l21.942857-142.628572z m-40.228571 197.485714h160.914286v29.257143h-160.914286v-29.257143z m351.085714-95.085714h245.028572v106.057143h-245.028572v-106.057143z m212.114286 80.457143V512h-179.2v51.2h179.2z m-171.885714 36.571429c14.628571 14.628571 29.257143 36.571429 40.228571 58.514285h87.771429c14.628571-18.285714 25.6-40.228571 36.571428-62.171428l29.257143 10.971428c-10.971429 18.285714-21.942857 36.571429-32.914286 51.2h109.714286v29.257143H1312.914286V658.285714H1426.285714c-10.971429-18.285714-21.942857-32.914286-36.571428-47.542857l29.257143-10.971428z m-73.142858-241.371429c21.942857 18.285714 43.885714 32.914286 58.514286 47.542857 21.942857-18.285714 36.571429-40.228571 47.542857-62.171428h-109.714285v-25.6h146.285714v21.942857c-10.971429 29.257143-29.257143 54.857143-51.2 76.8H1572.571429c-29.257143-29.257143-54.857143-65.828571-69.485715-102.4l25.6-14.628572c7.314286 18.285714 18.285714 36.571429 29.257143 51.2 18.285714-14.628571 36.571429-29.257143 47.542857-47.542857l25.6 25.6c-14.628571 18.285714-32.914286 36.571429-54.857143 51.2l32.914286 32.914286c21.942857-14.628571 40.228571-32.914286 54.857143-51.2l21.942857 18.285714c-14.628571 18.285714-32.914286 36.571429-54.857143 51.2 21.942857 18.285714 47.542857 32.914286 73.142857 43.885714l-21.942857 25.6c-36.571429-21.942857-69.485714-43.885714-98.742857-69.485714v18.285714H1426.285714v-14.628571c-29.257143 25.6-65.828571 47.542857-109.714285 65.828571l-18.285715-25.6c32.914286-14.628571 62.171429-29.257143 84.114286-47.542857-14.628571-14.628571-36.571429-32.914286-58.514286-47.542857l21.942857-21.942857z m449.828572-40.228571H2048v142.628571h80.457143v29.257143h-175.542857v51.2l32.914285 32.914286c32.914286-18.285714 58.514286-43.885714 80.457143-76.8l25.6 21.942857c-25.6 32.914286-51.2 54.857143-84.114285 73.142857 32.914286 25.6 73.142857 51.2 120.685714 69.485714l-14.628572 29.257143c-65.828571-32.914286-120.685714-69.485714-160.914285-117.028571v91.428571c0 25.6-10.971429 40.228571-32.914286 40.228571H1865.142857l-7.314286-29.257142c14.628571 0 32.914286 3.657143 47.542858 3.657142 7.314286 0 14.628571-7.314286 14.628571-18.285714v-80.457143c-43.885714 40.228571-98.742857 76.8-160.914286 109.714286l-14.628571-32.914286c65.828571-32.914286 124.342857-69.485714 175.542857-113.371428v-54.857143h-168.228571v-29.257143h263.314285v-43.885714h-204.8v-29.257143h204.8V343.771429h-219.428571v-25.6z m3.657143 186.514285c25.6 18.285714 47.542857 36.571429 65.828571 54.857143l-21.942857 21.942857c-18.285714-18.285714-40.228571-36.571429-69.485714-54.857143l25.6-21.942857z" p-id="4074" fill="#666666"></path></svg>